<svg width="300" height="219" viewBox="0 0 300 219" fill="none" xmlns="http://www.w3.org/2000/svg">
<path d="M245.609 217.729C246.034 216.021 250.465 221.436 250.884 217.583C252.703 200.833 269.823 211.243 289.017 210.853C300.861 210.612 302.738 196.37 296.509 188.416C285.419 174.254 260.177 150.707 252.694 144.003C251.073 126.864 253.56 116.44 249.948 107.337C245.167 95.2889 208.154 109.234 200.283 99.6247C201.181 96.3988 209.549 86.9525 201.408 83.6768C211.363 71.7207 202.815 79.6502 212.451 55.5981C211.748 52.0101 232.856 49.4987 220.978 32.8928C212.607 23.5518 195.504 19.363 176.043 27.7546C170.745 30.0392 160.484 26.1162 155.475 18.7348C144.827 0.373539 132.019 12.6014 130.077 18.6781C114.387 23.2775 113.312 6.57802 98.2511 1.86219C83.1906 -2.85364 66.526 6.27352 48.9587 25.3327C40.4153 35.6745 49.4381 68.893 57.2474 76.093C57.7763 77.0853 56.7836 85.6676 58.2543 90.8815C77.9655 120.557 47.1825 99.2195 48.029 112.987C48.6452 123.008 48.6375 127.747 49.0571 143.102C33.439 153.881 26.1391 159.716 12.5858 173.369C-9.23103 199.64 2.3253 205.588 10.0986 210.207C25.6974 219.477 38.5794 205.635 50.1398 218.245C61.4868 220.479 56.7267 208.353 58.0066 200.095C56.4893 157.838 55.1391 150.502 55.0125 112.781C88.2115 114.105 236.597 109.991 243.692 111.735C246.09 149.875 244.596 142.776 245.453 193.277M250.028 176.673C249.796 166.865 255.608 158.492 270.466 169.235C278.693 178.597 298.011 189.369 294.328 202.391C293.199 211.494 266.312 200.75 250.402 203.201M47.3871 202.013C35.0453 196.868 0.684907 216.306 3.75456 196.225C5.86835 176.322 50.3564 142.589 47.6533 161.599M84.2361 89.9242C95.3532 87.4854 110.998 87.2754 118.516 87.3875C122.324 87.4443 121.567 101.026 121.358 105.953C113.331 106.564 92.2953 105.79 84.512 106.404M79.1611 106.256C60.9764 87.8534 68.4714 67.5747 96.6028 66.869C124.734 66.1633 153.913 78.0701 163.568 68.2453C185.195 45.6914 202.487 43.0505 206.915 58.9509C208.542 64.7912 204.905 76.4086 192.152 66.524C186.483 59.4921 166.929 63.8431 181.944 70.4555C191.508 72.4542 195.462 93.8533 190.56 95.894C188.547 95.8784 189.738 79.6045 187.739 79.6274C172.834 79.7977 154.761 80.4253 143.707 81.0907C143.46 84.9063 142.91 87.9128 143.109 93.0883C137.975 93.3951 135.095 93.7479 125.578 93.6147C125.354 89.5143 125.785 84.6659 125.339 82.0372C116.003 82.6312 88.3786 81.7772 77.7966 85.2159M143.369 105.551L125.972 105.321L126.067 100.902L143.253 100.404M185.331 104.899C175.582 104.566 156.619 105.378 148.381 105.057C148.371 100.815 148.245 89.6711 148.267 84.4884L184.65 83.7975M64.5163 71.4764C64.5163 71.4764 51.1955 44.0438 56.6662 32.1036C63.1305 17.9949 82.4415 8.37813 95.5696 13.9626C101.556 16.509 102.67 18.1534 104.134 33.4239C110.19 41.9507 110.659 38.4879 109.052 28.7459C107.227 17.6793 140.415 26.44 167.711 29.8019C172.33 35.2896 169.028 44.9177 177.112 35.2172C189.571 25.5821 210.898 20.338 219.408 41.2046C222.148 47.921 209.435 46.1607 200.105 44.9058C196.956 44.4823 155.75 51.7098 149.766 52.8706C140.865 54.5972 128.422 61.3193 120.713 63.3732C110.161 66.1843 74.7337 48.7689 70.227 58.5708M135.925 18.5493C129.627 19.8079 138.416 10.603 144.079 11.8865C144.079 11.8865 153.655 15.4111 151.825 17.7339C149.742 20.3767 143.739 19.0985 143.739 19.0985" fill="#CBE4DE"/>
</svg>
